<!--?xml version="1.0" standalone="no"?-->
              <svg id="sw-js-blob-svg" viewBox="0 0 100 100" xmlns="http://www.w3.org/2000/svg" version="1.1">
                    <defs> 
                        <linearGradient id="sw-gradient" x1="0" x2="1" y1="1" y2="0">
                            <stop id="stop1" stop-color="rgba(255, 158.41, 44.852, 1)" offset="0%"></stop>
                            <stop id="stop2" stop-color="rgba(255, 88, 35, 1)" offset="100%"></stop>
                        </linearGradient>
                    </defs>
                <path fill="url(#sw-gradient)" d="M23.2,-33.9C30.2,-31.7,36,-25.4,37.3,-18.3C38.7,-11.2,35.5,-3.3,32.4,3.3C29.3,9.8,26.2,14.9,22.3,19.3C18.4,23.6,13.7,27.2,8.1,29.9C2.5,32.6,-4.1,34.3,-11.7,34.5C-19.4,34.7,-28.1,33.4,-33.9,28.4C-39.7,23.5,-42.5,15,-42.5,6.9C-42.5,-1.3,-39.6,-9,-35.4,-15.3C-31.2,-21.5,-25.5,-26.3,-19.4,-28.8C-13.3,-31.4,-6.6,-31.8,0.7,-33C8.1,-34.1,16.3,-36.1,23.2,-33.9Z" width="100%" height="100%" transform="translate(50 50)" stroke-width="0" style="transition: all 0.3s ease 0s;"></path>
              </svg>